<svg width="1085" height="690" viewBox="0 0 1085 690" fill="none" xmlns="http://www.w3.org/2000/svg" class="svelte-uwc87p"><path fill-rule="evenodd" stroke="#ffffff" stroke-width="3" clip-rule="evenodd" d="M1084.98 691.853C1084.97 683.296 1080.15 675.471 1072.52
          671.629L904.419 587.041L1072.68 500.709C1080.24 496.838 1085 489.049
          1085 480.541C1085 472.034 1080.24 464.245 1072.68 460.374L917.71
          380.904L1072.48 303.45C1080.14 299.614 1084.98 291.771 1084.98
          283.192C1084.98 274.612 1080.14 266.769 1072.48 262.934L552.592
          2.48863C546.231 -0.69608 538.746 -0.69608 532.385 2.48863L12.4999
          262.934C4.84027 266.769 0.00154774 274.612 0.00154774
          283.192C0.00154774 291.771 4.84027 299.614 12.4999 303.45L167.267
          380.927L56.5092 437.727C13.0639 460.083 3.02015 465.252 0.698214
          472.797C1.18009e-05 475.065 1.1821e-05 477.549 1.1821e-05
          480.779C-0.00864743 489.285 4.74065 497.079 12.2964 500.958L180.287
          587.018L12.4546 671.629C4.81986 675.474 0.00144015 683.303 0.00144015
          691.864C0.00144015 700.426 4.81986 708.255 12.4546 712.1L532.339
          973.677C538.737 976.908 546.285 976.908 552.683 973.677L1072.57
          712.1C1080.19 708.241 1084.99 700.409 1084.98 691.853ZM660.499
          107.608L1011.1 283.15L541.964 518.065L72.8332 283.15L541.964
          48.258L624.441 89.5537L378.123 212.47C369.078 216.987 365.414 227.967
          369.939 236.996C374.464 246.024 385.464 249.681 394.509
          245.165L651.836 116.727C655.727 114.798 658.789 111.559 660.499
          107.608ZM217.382 405.697L185.824 421.915L168.02 431.061L167.999
          431.072C130.385 450.396 96.265 467.924 71.7621 480.54L542.579
          722.469L1013.24 480.517L867.776 405.81L552.691 563.992C546.325 567.186
          538.833 567.186 532.467 563.992L316.355 455.372L234.621
          496.394C231.491 497.978 228.035 498.802 224.531 498.802C214.026
          498.822 204.889 491.579 202.472 481.314C200.055 471.049 204.994
          460.464 214.396 455.759L265.749 429.978L217.382 405.697ZM542.01
          927.942L72.8332 692.352L229.926 613.311L291.114 644.611L215.696
          682.258C204.642 687.889 200.199 701.379 205.745 712.475C211.29 723.57
          224.748 728.117 235.888 722.659L340.986 670.266L531.642
          767.803C538.109 771.116 545.775 771.116 552.242 767.803L853.778
          613.378L1011.1 692.42L542.01 927.942Z" fill="#FF8425" class="svelte-uwc87p filled" style=""></path>
</svg>